<svg xmlns="http://www.w3.org/2000/svg" width="34.131" height="32.22" viewBox="0 0 34.131 32.22">
  <g id="noun-tiles-1994054" transform="translate(-94.166 -38.475)">
    <path id="Path_6" data-name="Path 6" d="M115.8,144.094c-.58.015-1.16,0-1.74,0H101.215c-.617,0-1.233,0-1.85,0a3.889,3.889,0,0,1-.46-.029l.485.066a3.58,3.58,0,0,1-.85-.233c.146.062.292.124.434.182a3.751,3.751,0,0,1-.748-.438l.368.285a3.7,3.7,0,0,1-.609-.609c.095.124.19.244.285.368a3.651,3.651,0,0,1-.438-.748c.062.146.124.292.182.434a3.459,3.459,0,0,1-.233-.85c.022.161.044.325.066.485a15.314,15.314,0,0,1-.029-1.963v-12.94c0-.624,0-1.248,0-1.872a3.888,3.888,0,0,1,.029-.46c-.022.161-.044.325-.066.485a3.579,3.579,0,0,1,.233-.85c-.062.146-.124.292-.182.434a3.752,3.752,0,0,1,.438-.748c-.095.124-.19.244-.285.368a3.7,3.7,0,0,1,.609-.609l-.368.285a3.651,3.651,0,0,1,.748-.438c-.146.062-.292.124-.434.182a3.458,3.458,0,0,1,.85-.233l-.485.066a13.439,13.439,0,0,1,1.715-.029h3.024q-.788-1.374-1.576-2.743c-.292.591-.58,1.186-.872,1.777q-.952,1.943-1.9,3.882-.93,1.893-1.861,3.79a22.678,22.678,0,0,0-1.1,2.357,5.438,5.438,0,0,0-.233,1.208,3.654,3.654,0,0,0,0,.773,5.382,5.382,0,0,0,.715,2.295,5.163,5.163,0,0,0,2.1,1.963q.919.454,1.839.9,1.806.887,3.608,1.769,2.074,1.018,4.152,2.036l3.462,1.7c.514.252,1.025.507,1.543.755a5.611,5.611,0,0,0,2.287.591,1.822,1.822,0,1,0,0-3.645,3.035,3.035,0,0,1-.314-.026l.485.066a3.439,3.439,0,0,1-.868-.233c.146.062.292.124.434.182-.558-.241-1.1-.533-1.645-.8q-1.795-.881-3.593-1.762l-4.341-2.131-3.659-1.795c-.533-.263-1.069-.518-1.6-.784a3.39,3.39,0,0,1-.558-.347l.368.285a3.442,3.442,0,0,1-.62-.62c.095.124.19.244.285.368a3.477,3.477,0,0,1-.434-.748c.062.146.124.292.182.434a3.458,3.458,0,0,1-.237-.876c.022.161.044.325.066.485a3.639,3.639,0,0,1,0-.868c-.022.161-.044.325-.066.485a3.534,3.534,0,0,1,.23-.861c-.062.146-.124.292-.182.434.179-.42.4-.821.595-1.229.427-.872.857-1.744,1.284-2.616q1.467-2.988,2.929-5.976c.226-.463.452-.923.679-1.386a1.892,1.892,0,0,0,0-1.842,1.838,1.838,0,0,0-1.576-.9c-1.423,0-2.846-.007-4.268,0a5.238,5.238,0,0,0-4.586,2.743,5.37,5.37,0,0,0-.617,2.455v16.26a5.219,5.219,0,0,0,.2,1.481,5.11,5.11,0,0,0,.6,1.335,5.2,5.2,0,0,0,.934,1.1,5.248,5.248,0,0,0,1.182.8,6.654,6.654,0,0,0,.872.343,6.267,6.267,0,0,0,.97.164,4.643,4.643,0,0,0,.551.029h16.045c.091,0,.182,0,.274,0a1.923,1.923,0,0,0,1.291-.533,1.832,1.832,0,0,0,0-2.583,1.876,1.876,0,0,0-1.288-.525Z" transform="translate(0 -77.045)" fill=""/>
    <path id="Path_7" data-name="Path 7" d="M151.246,51.413c-.244.5-.493,1-.737,1.507q-.881,1.8-1.766,3.6-1.056,2.156-2.116,4.309-.892,1.822-1.788,3.645c-.263.533-.518,1.069-.784,1.6a3.878,3.878,0,0,1-.347.562c.095-.124.19-.244.285-.368a3.614,3.614,0,0,1-.6.606l.368-.285a3.514,3.514,0,0,1-.766.449c.146-.062.292-.124.434-.182a3.615,3.615,0,0,1-.854.237l.485-.066a3.634,3.634,0,0,1-.89.007l.485.066a3.438,3.438,0,0,1-.868-.233c.146.062.292.124.434.182-.558-.241-1.1-.533-1.645-.8q-1.795-.881-3.593-1.762l-4.341-2.131-3.659-1.795c-.533-.263-1.069-.518-1.6-.784a3.39,3.39,0,0,1-.558-.347l.368.285a3.442,3.442,0,0,1-.62-.62c.095.124.19.244.285.368a3.477,3.477,0,0,1-.434-.748c.062.146.124.292.182.434a3.457,3.457,0,0,1-.237-.876c.022.161.044.325.066.485a3.638,3.638,0,0,1,0-.868c-.022.161-.044.325-.066.485a3.534,3.534,0,0,1,.23-.861c-.062.146-.124.292-.182.434.292-.686.653-1.346.981-2.014q1-2.047,2.007-4.093.947-1.932,1.893-3.86c.252-.511.5-1.021.752-1.532.547-1.113,1.087-2.229,1.638-3.342a3.692,3.692,0,0,1,.347-.562c-.095.124-.19.244-.285.368a3.442,3.442,0,0,1,.62-.62l-.368.285a3.477,3.477,0,0,1,.748-.434c-.146.062-.292.124-.434.182a3.457,3.457,0,0,1,.876-.237l-.485.066a3.639,3.639,0,0,1,.868,0l-.485-.066a3.534,3.534,0,0,1,.861.23c-.146-.062-.292-.124-.434-.182.555.237,1.091.529,1.631.792q1.8.881,3.6,1.766l4.341,2.131q1.839.9,3.674,1.8c.533.263,1.069.518,1.6.784a3.39,3.39,0,0,1,.558.347l-.368-.285a3.441,3.441,0,0,1,.62.62c-.095-.124-.19-.244-.285-.368a3.478,3.478,0,0,1,.434.748c-.062-.146-.124-.292-.182-.434a3.457,3.457,0,0,1,.237.876c-.022-.161-.044-.325-.066-.485a3.639,3.639,0,0,1,0,.868c.022-.161.044-.325.066-.485a3.534,3.534,0,0,1-.23.861c.062-.146.124-.292.182-.434a1.624,1.624,0,0,1-.08.182,1.942,1.942,0,0,0-.182,1.4,1.865,1.865,0,0,0,.839,1.091,1.839,1.839,0,0,0,1.4.182,1.805,1.805,0,0,0,1.091-.839,5.2,5.2,0,0,0-.248-5.224,5.4,5.4,0,0,0-2.09-1.846L149.3,44.824q-2.359-1.155-4.717-2.313l-4.6-2.255c-.8-.39-1.594-.784-2.393-1.175a5.577,5.577,0,0,0-1.237-.471,5.194,5.194,0,0,0-5.855,2.747q-.865,1.768-1.733,3.531-.613,1.253-1.229,2.5-1.182,2.413-2.368,4.823-.848,1.735-1.7,3.466c-.036.073-.073.15-.109.223a5.408,5.408,0,0,0-.591,2.408,5.266,5.266,0,0,0,2.583,4.487c.653.376,1.357.675,2.032,1.007q2.178,1.067,4.356,2.138l4.841,2.375q1.62.793,3.243,1.591a8.187,8.187,0,0,0,1.43.6,5.185,5.185,0,0,0,5.319-1.678,5.764,5.764,0,0,0,.66-.989c.051-.1.1-.2.15-.3l.624-1.27,2.1-4.279q1.193-2.43,2.382-4.856l1.664-3.393.241-.493a1.942,1.942,0,0,0,.182-1.4,1.865,1.865,0,0,0-.839-1.091,1.82,1.82,0,0,0-2.492.657Z" transform="translate(-26.694 0)" fill="#151516" />
  </g>
</svg>
