<?xml version="1.0" encoding="utf-8"?>
<!-- Generator: Adobe Illustrator 23.0.3, SVG Export Plug-In . SVG Version: 6.00 Build 0)  -->
<svg version="1.1" id="Layer_1" xmlns="http://www.w3.org/2000/svg" xmlns:xlink="http://www.w3.org/1999/xlink" x="0px" y="0px"
	 viewBox="0 0 512 512" style="enable-background:new 0 0 512 512;" xml:space="preserve">

<g>
	<path class="st0" d="M253.3,7.7c20.6,16.5,36,36.6,39.8,63.4c1.8,12.5,1,25.4,1.1,38.1c0,3.9,0.5,6.7,4.3,9.1
		c5.9,3.7,8.8,9.7,8.8,16.8c0,14.8-0.1,29.6-0.1,44.5c0,3.6-1.3,6.4-4.7,7.6c-3.6,1.3-6.5,0-8.8-3.1c-4.3-5.6-8.6-11.2-13.2-17.1
		c-19.9,15.3-40,15.7-60.4,0.1c-3.5,4.4-6.9,8.9-10.3,13.3c-1.2,1.5-2.4,3-3.6,4.5c-2.3,2.8-5.2,3.8-8.6,2.6
		c-3.3-1.2-4.4-3.9-4.4-7.3c0.1-14.8,0-29.6,0.2-44.5c0.1-7.8,3.6-14,10.2-18.1c2.6-1.6,3.2-3.3,3.3-6.2c0.1-12.4,0-24.8,1-37.1
		c1-13,6.2-24.9,13.1-35.9c2.4-3.8,5.9-4.7,9.5-2.7c3.7,2,4.6,5.7,2.6,9.9c-3.6,7.6-7.2,15.2-11.1,23.5c19.7,0,37.8,0,57.5,0
		c-3.7-8.1-6-16-10.5-22.4c-5.8-8.6-12.9-16.4-20.1-23.9c-6.3-6.5-6.6-9.6,0.4-15C250.7,7.7,252,7.7,253.3,7.7z M221.2,83.6
		c0,9.1,0.1,17.7-0.1,26.2c-0.1,3.2,0.6,5,4,6.4c11.8,5.1,15.7,17.6,9.6,28.9c-1.8,3.4-3.9,6.6-5.7,9.8
		c11.7,12.8,33.4,12.5,42.7-0.5c-1.3-2.1-2.7-4.3-3.9-6.5c-8.3-14.3-4.9-25.4,10-32.7c1-0.5,2.4-1.6,2.4-2.5
		c0.2-9.6,0.1-19.2,0.1-29C260.4,83.6,241.2,83.6,221.2,83.6z M291.7,158.6c0.5-0.2,1-0.4,1.5-0.6c0-7.7,0.4-15.4-0.3-23.1
		c-0.2-2.3-3.1-5.5-5.4-6.2c-2.4-0.7-5.9,0.6-8.1,2.3c-1.3,1-2.1,4.8-1.2,6.3C282.4,144.5,287.2,151.5,291.7,158.6z M207.7,158.1
		c0.4,0.2,0.8,0.3,1.2,0.5c4.3-6.4,8.5-12.7,12.8-19.1c1.8-2.7,3.1-6,0.2-8.2c-2.3-1.7-6-3-8.5-2.4c-2.3,0.6-5.2,3.9-5.4,6.3
		C207.3,142.7,207.7,150.4,207.7,158.1z"/>
	<path class="st0" d="M332.6,7.7c7.6,2.3,5.6,9,6.2,14.3c5.7,1.5,14.2-1.9,14,7.9c-0.1,9.5-8.5,5.8-13.7,7.2
		c-1.8,5,2.3,13.9-7.5,13.9c-9.7,0-5.8-8.8-7.4-13.8c-5.4-1.5-13.7,2.2-13.8-7.3c-0.1-9.7,8.4-6.3,14-7.8c0.6-5.4-1.4-12.1,6.3-14.4
		C331.3,7.7,331.9,7.7,332.6,7.7z"/>
	<path class="st0" d="M105.5,238.5c-3.2-9.4-6.4-18.1-9-27.1c-1.1-3.8-1.5-8.3-0.7-12.1c4.3-21.9,9-43.8,13.5-65.7
		c1.7-8,7-10.1,13.2-4.9c17.6,14.7,35.1,29.3,52.5,44.2c2.1,1.8,3.7,4.5,4.6,7.1c6.3,18.1,12.5,36.2,18.5,54.4
		c1.1,3.3,2.6,4.5,6.1,4.4c8.5-0.3,17-0.1,26-0.1c0-9.9,0-19.2,0-28.5c0-5-0.1-10,0-15c0.1-4.9,2.6-7.5,6.8-7.7
		c4.5-0.1,7.3,2.6,7.4,7.6c0.1,13.4,0,26.7,0.1,40.1c0,0.9,0.2,1.9,0.3,3.1c4,0,7.8,0,12.2,0c0.1-1.6,0.3-3.3,0.3-5
		c0-12.4,0-24.8,0-37.2c0-5.7,2.3-8.5,6.8-8.6c4.8-0.1,7.3,2.8,7.4,8.6c0.1,12.2,0,24.5,0,36.7c0,1.7,0,3.5,0,5.8
		c6.9,0,13.3,0.3,19.7-0.2c1.4-0.1,3.1-2.4,3.9-4.1c13.9-28.1,27.7-56.3,41.5-84.5c2-4,3.9-8.1,5.9-12.1
		c6.4-12.5,19.6-17.1,32.3-11.2c9.8,4.5,19.4,9.4,29.1,14.1c16.2,7.9,20.4,20.3,12.5,36.6c-9.1,18.6-18.3,37.3-27.4,55.9
		c-0.8,1.6-1.5,3.2-2.2,4.8c7.3,2.1,8.4,3.5,8.5,10.8c0.5,27.2,8.7,52.2,22.4,75.5c4.1,6.9,5.8,13.9,2.7,21.6
		c-2.9,7.2-8.1,12.1-15.8,13.4c-3.3,0.6-4.1,2.1-4.4,5c-4.7,47.3-37.9,85.6-84.3,95.8c-11.6,2.6-24,2-36,2.8c-2,0.1-4.1,0-6.7,0
		c0,9.9,0,19.2,0,28.5c0,8.9-2,10.9-10.7,10.9c-35.6,0-71.2,0-106.8,0c-8.5,0-10.6-2.1-10.6-10.5c0-19.8,0.2-39.6-0.1-59.5
		c-0.1-6.8,1.9-10.3,8.5-13.4c19.1-9.1,34.1-23.4,45.6-41.3c2-3.1,3.7-6.3,5.5-9.5c-28.5-14.8-37.8-37.8-24.5-60.2
		c13.4-22.6,37.3-25.4,64.1-7.4c11.6-8.3,21.5-29.2,22.4-47.6c-1.7-0.1-3.4-0.3-5.1-0.3c-50.8,0-101.5,0-152.3,0
		c-2.6,0-5-0.5-5.7,3.4c-5.7,33.4-6.4,66.6,3.5,99.5c4.4,14.6,11.2,28.1,20.6,40.2c3.3,4.2,2.9,8.3-0.8,11
		c-3.5,2.5-7.2,1.7-10.4-2.4c-12.5-16-20.7-34.1-25.4-53.7c-8.5-34.8-7.1-69.6,0.2-104.4c1.4-6.5,3-7.4,11.2-7.6
		C103.2,238.8,104,238.7,105.5,238.5z M258.4,488.1c0.3-0.6,0.5-0.8,0.5-1.1c0.1-9.5,0.1-19,0.2-28.5c0-7.1,2.1-9.2,9.2-9.3
		c9.3-0.1,18.7,0.1,28-0.3c49.9-2.2,89.6-43,90.5-92.9c0.1-7.9,2.2-9.8,10.1-9.9c10.4-0.1,13.7-5.8,8.5-14.7
		c-8.5-14.5-15.4-29.8-19.2-46.1c-2.5-10.4-3.8-21.1-5.7-32c-32.8,0-65.9,0-99.2,0c-0.3,2.3-0.6,4.4-0.9,6.4
		c-3.2,22-12.6,40.7-30,55c-6.2,5.1-9,4.8-14.2-1.2c-5.5-6.3-12.3-10.5-20.8-10.9c-13.9-0.6-25.9,10.8-26.7,25.1
		c-0.7,13.9,10.5,26.2,24.7,27.2c8.4,0.6,10.8,4.6,7.6,12.1c-12,27.7-31.4,48.8-57.7,63.4c-2.7,1.5-3.8,3.1-3.8,6.3
		c0.2,15.8,0.1,31.6,0.1,47.3c0,1.4,0.2,2.8,0.3,4.1C193,488.1,225.8,488.1,258.4,488.1z M393.2,192.4c-4.2-2.1-7.8-3.8-11.4-5.6
		c-4.8-2.5-6.4-6-4.4-10.1c2-4,5.7-4.9,10.8-2.5c3.6,1.7,7.2,3.5,11.3,5.4c1.8-3.6,3.4-6.9,5-10.2c3.4-7.2,1.7-11.9-5.4-15.4
		c-9.5-4.7-19.1-9.4-28.6-14c-7.7-3.7-12.2-2.1-16,5.7c-14.4,29.5-28.9,58.9-43.3,88.4c-0.6,1.3-1.2,2.7-1.9,4.6
		c20.2,0,39.5,0,58.8-0.1c1.2,0,2.8-0.9,3.4-1.9c1.6-2.7,2.8-5.6,4.3-8.8c-6.9-3.4-13.5-6.5-19.9-9.7c-5-2.5-6.1-7.1-2.8-11.1
		c2.6-3.1,5.7-3.1,9.1-1.5c6.5,3.2,12.9,6.3,19.9,9.6C385.8,207.6,389.4,200.3,393.2,192.4z M161.3,179.8
		c-9.4-7.9-18.2-15.3-27.1-22.7c-0.7-0.5-1.8-1.1-2.5-0.9c-4.3,1.3-9,2.1-12.6,4.5c-1.9,1.3-2.1,5.4-2.8,8.3
		c-2.1,9.6-4,19.3-6.1,29.4c9.6,0.6,18.6,1.2,27.5,1.7c1,0.1,2.2-0.5,3-1.1C147.5,192.9,154.2,186.6,161.3,179.8z M184.7,238.8
		c-5.4-15.9-10.5-30.9-15.8-46.5c-6.1,5.7-11.8,10.9-17.3,16.3c-0.8,0.8-0.9,3-0.5,4.3c2.4,7.7,4.9,15.3,7.6,22.8
		c0.5,1.3,2.2,2.9,3.5,2.9C169.4,238.9,176.6,238.8,184.7,238.8z M111.7,212.7c2.9,8.5,5.4,16.1,8.1,23.6c0.4,1,1.6,2.3,2.5,2.3
		c7.2,0.2,14.3,0.1,22.3,0.1c-2.6-8-5-15.3-7.5-22.6c-0.3-0.8-1.6-1.7-2.5-1.8C127.3,213.8,120,213.3,111.7,212.7z"/>
	<path class="st0" d="M389.1,91.2c-1.2,5.5,2.1,13.8-7.3,13.9c-9.5,0-6.3-8.5-7.5-13.9c-5.4-1.3-13.7,2.1-13.8-7.3
		c-0.1-9.6,8.3-6.6,13.8-7.6c1.2-5.5-1.8-13.8,7.3-14c9.5-0.2,6.5,8.3,7.4,13.8c5.6,1.4,14.1-2,14,7.7
		C402.9,93.3,394.7,89.9,389.1,91.2z"/>
	<path class="st0" d="M135.8,72.8c-5.5-1.3-13.5,2.2-13.9-6.9c-0.5-10.1,8.4-6.7,13.9-8.1c1.3-5.3-2-13.7,7.2-13.8
		c9.6-0.1,6.2,8.6,7.6,13.8c5.4,1.3,13.7-2,13.8,7.4c0.2,9.9-8.5,6.2-13.7,7.6c-1.6,5.3,2.1,14-7.7,13.9
		C133.6,86.6,137.1,78.3,135.8,72.8z"/>
	<path class="st0" d="M330.6,275.6c13.8,0.1,25.6,11.2,26.1,24.6c0.2,5.1-1.8,7.8-6,8.3c-4.6,0.5-7.3-1.7-8.1-6.8
		c-1.3-7.8-5.4-11.9-12-11.9c-6.8,0-11.2,4.3-12.4,12.2c-0.7,4.8-3.3,6.9-7.8,6.5c-4.2-0.4-6.5-3.3-6.2-8.1
		C304.9,286.3,316.5,275.5,330.6,275.6z"/>
	<path class="st0" d="M219.6,328.3c0,4.2-2.7,7.1-6.7,7.1c-3.9,0-6.9-3.2-6.7-7.2c0.1-3.8,3-6.8,6.6-6.9
		C216.7,321.1,219.6,324.1,219.6,328.3z"/>
</g>
</svg>
