<svg xmlns="http://www.w3.org/2000/svg" width="22.441" height="35.084" viewBox="0 0 22.441 35.084">
  <g id="noun-bathroom-2526137" transform="translate(-204.96 -14)">
    <path id="Path_11" fill="#fff" data-name="Path 11" d="M226.358,208.093h-3.3a3.714,3.714,0,0,0,.564-1.071l.825-2.622a.9.9,0,0,0-.173-.812,1.211,1.211,0,0,0-.868-.369h-6.25v-3.287a2.682,2.682,0,0,0-5.295,0,.967.967,0,0,0,1.91,0,.685.685,0,0,1,.738-.628.711.711,0,0,1,.738.628v3.287H209a1.21,1.21,0,0,0-.868.369.949.949,0,0,0-.173.812l.825,2.622a3.292,3.292,0,0,0,.564,1.071h-3.3a1,1,0,0,0-1.085.923v10.71a1,1,0,0,0,1.085.923h20.268a1,1,0,0,0,1.085-.923v-10.71a.96.96,0,0,0-1.042-.923Zm-15.494-1.551-.477-1.477h11.588l-.477,1.477a2.433,2.433,0,0,1-2.387,1.551h-5.859a2.474,2.474,0,0,1-2.387-1.551Zm-3.733,3.435h7.986V218.8h-7.986Zm18.142,8.826h-7.986v-8.826h7.986Z" transform="translate(-0.001 -171.565)" />
    <path id="Path_12" fill="#fff" data-name="Path 12" d="M226.357,14H206.045a1,1,0,0,0-1.085.923V29.031a1,1,0,0,0,1.085.923h3.3a.935.935,0,1,0,0-1.847H207.13V15.847h18.1V28.108H220.02a.935.935,0,1,0,0,1.847h6.293a1,1,0,0,0,1.085-.923V14.923A.939.939,0,0,0,226.357,14Z" />
    <path id="Path_13" fill="#fff" data-name="Path 13" d="M254.391,62.018a.706.706,0,0,0,0-1.145,1.032,1.032,0,0,0-1.345,0l-1.172,1a.706.706,0,0,0,0,1.145,1.067,1.067,0,0,0,1.3,0Z" transform="translate(-43.007 -43.549)" />
    <path id="Path_14" fill="#fff" data-name="Path 14" d="M264.887,77.55a.97.97,0,0,0,.651-.222l3.515-2.991a.706.706,0,0,0,0-1.145,1.032,1.032,0,0,0-1.345,0l-3.515,2.991a.706.706,0,0,0,0,1.145,1.091,1.091,0,0,0,.695.222Z" transform="translate(-54.372 -55.056)" />
    <path id="Path_15" fill="#fff" data-name="Path 15" d="M277.776,409.92h-1.3a.823.823,0,1,0,0,1.625h1.3a.823.823,0,1,0,0-1.625Z" transform="translate(-65.091 -369.81)" />
    <path id="Path_16" fill="#fff" data-name="Path 16" d="M383.04,410.732a.9.9,0,0,0,.955.812h1.3a.823.823,0,1,0,0-1.625h-1.3A.9.9,0,0,0,383.04,410.732Z" transform="translate(-164.278 -369.81)" />
  </g>
</svg>
