<svg xmlns="http://www.w3.org/2000/svg" width="27.746" height="33.22" viewBox="0 0 27.746 33.22">
  <g id="noun-door-1345130" transform="translate(-222.384 -111.5)">
    <path fill="#fff" id="Path_8" data-name="Path 8" d="M238.024,124.458a3.077,3.077,0,1,0,3.064-2.792A2.917,2.917,0,0,0,238.024,124.458Zm4.359,0a1.3,1.3,0,1,1-1.3-1.181A1.254,1.254,0,0,1,242.384,124.458Zm7.247,18.956a.869.869,0,0,1-.884.805H223.768a.809.809,0,1,1,0-1.611h25.038a.815.815,0,0,1,.825.805Zm-22.917-1.88h-1.767V112.8a.869.869,0,0,1,.884-.805h20.855a.869.869,0,0,1,.884.805v28.729H245.8V113.61H226.713Z" />
  </g>
</svg>
