<svg xmlns="http://www.w3.org/2000/svg" width="34.132" height="25.988" viewBox="0 0 34.132 25.988">
  <g id="noun-partner-4249221" transform="translate(-74.759 -76.91)">
    <path id="Path_20" data-name="Path 20" d="M95.851,80.361A6.733,6.733,0,1,0,91.1,78.389,6.725,6.725,0,0,0,95.851,80.361Zm0-11.249a4.528,4.528,0,1,1-3.2,1.326,4.523,4.523,0,0,1,3.2-1.326ZM85.242,82.573a4.24,4.24,0,1,0-2.993-1.242,4.234,4.234,0,0,0,2.993,1.242Zm0-6.267h0a2.035,2.035,0,1,1-1.437.6,2.033,2.033,0,0,1,1.437-.6Zm21.165,6.267a4.24,4.24,0,1,0-2.993-1.242,4.234,4.234,0,0,0,2.993,1.242Zm0-6.267h0a2.035,2.035,0,1,1-1.437.6,2.033,2.033,0,0,1,1.437-.6Zm6.483,10.335v1.816a1.1,1.1,0,1,1-2.2,0V86.641a.482.482,0,0,0-.285-.439l-1.886-.842h-3.569a3.947,3.947,0,0,1,1.611,3.178V91.8a1.1,1.1,0,1,1-2.2,0v-3.26a1.741,1.741,0,0,0-1.03-1.588l-3.556-1.588h-.311a4.065,4.065,0,0,1-7.272,0h-.311L88.321,86.95h0a1.741,1.741,0,0,0-1.03,1.588V91.8a1.1,1.1,0,1,1-2.2,0v-3.26A3.946,3.946,0,0,1,86.7,85.359H83.132l-1.886.842h0a.482.482,0,0,0-.285.44v1.816a1.1,1.1,0,1,1-2.2,0V86.641a2.686,2.686,0,0,1,1.59-2.45c2.293-1.024,2.238-1.034,2.55-1.034,5.046,0,4.813-.036,5.108.1l1.6.713,1.591-.711c.276-.123.345-.1,1.757-.1h0A1.1,1.1,0,0,1,94.021,84a1.86,1.86,0,0,0,3.607,0A1.1,1.1,0,0,1,98.7,83.16h1.309c.31,0,.324.04,2.04.806,1.734-.774,1.739-.809,2.046-.809,5.046,0,4.813-.036,5.108.1l2.1.938h0a2.686,2.686,0,0,1,1.589,2.45Z" transform="translate(-4 10)" fill="#151516"/>
  </g>
</svg>
