<svg xmlns="http://www.w3.org/2000/svg" width="28.408" height="39.426" viewBox="0 0 28.408 39.426">
  <g id="noun-construction-tiles-4604049" transform="translate(-69.496 0.557)">
    <path id="Path_18" data-name="Path 18" d="M97.4,26.493a.914.914,0,0,0-.319-.694L93.629,22.84l3.455-2.962a.913.913,0,0,0,0-1.388l-3.455-2.959,3.455-2.962a.913.913,0,0,0,0-1.388L84.294.219a.912.912,0,0,0-1.188,0L70.315,11.182a.913.913,0,0,0,0,1.387l3.455,2.962L70.315,18.49a.913.913,0,0,0,0,1.388L73.77,22.84,70.315,25.8a.913.913,0,0,0,0,1.388l12.79,10.963a.913.913,0,0,0,1.188,0l12.79-10.963a.915.915,0,0,0,.319-.694ZM72.313,11.875,83.7,2.115l11.387,9.76L83.7,21.635Zm0,7.309,2.86-2.451,7.931,6.8a.913.913,0,0,0,1.188,0l7.931-6.8,2.86,2.451L83.7,28.944ZM83.7,36.252,72.314,26.493l2.86-2.451,7.931,6.8a.913.913,0,0,0,1.188,0l7.931-6.8,2.86,2.451Z"  stroke="#fff" stroke-width="1" fill="#fff"/>
  </g>
</svg>
