<svg xmlns="http://www.w3.org/2000/svg" width="52.032" height="32.619" viewBox="0 0 52.032 32.619">
  <path id="Icon_awesome-behance" data-name="Icon awesome-behance" d="M20.957,19.917c2.873-1.373,4.372-3.451,4.372-6.685,0-6.378-4.752-7.931-10.235-7.931H0V37.316H15.519c5.817,0,11.283-2.791,11.283-9.3,0-4.02-1.906-6.992-5.845-8.1ZM7.037,10.767h6.6c2.538,0,4.824.714,4.824,3.658,0,2.719-1.78,3.812-4.291,3.812H7.037V10.767Zm7.525,21.111H7.037V23.061h7.669c3.1,0,5.059,1.292,5.059,4.571,0,3.234-2.34,4.246-5.2,4.246ZM46.946,10.134H33.965V6.982H46.946ZM52.032,26.06c0-6.856-4.011-12.574-11.283-12.574-7.064,0-11.861,5.312-11.861,12.267,0,7.218,4.544,12.168,11.861,12.168,5.537,0,9.124-2.493,10.849-7.8H45.98c-.605,1.978-3.1,3.026-5.032,3.026-3.731,0-5.691-2.186-5.691-5.9H51.978C52,26.873,52.032,26.467,52.032,26.06ZM35.266,23.242a4.975,4.975,0,0,1,5.284-4.95c3.2,0,4.806,1.879,5.077,4.95Z" transform="translate(0 -5.302)" fill="#fff"/>
</svg>
