<?xml version="1.0" encoding="utf-8"?>
<!-- Generator: Adobe Illustrator 23.0.3, SVG Export Plug-In . SVG Version: 6.00 Build 0)  -->
<svg version="1.1" id="Layer_1" xmlns="http://www.w3.org/2000/svg" xmlns:xlink="http://www.w3.org/1999/xlink" x="0px" y="0px"
	 viewBox="0 0 512 512" style="enable-background:new 0 0 512 512;" xml:space="preserve">

<g>
	<g>
		<path class="st0" d="M497,152.4c-1.6,10-3.2,20-4.8,30.1c-0.7,4.8-1.3,9.6-2,14.4c-1,5.8-4.4,8.4-10.3,7.6c-9-1.2-18-2.5-27-3.8
			c-4.2-0.6-8.2-0.7-10.8,3.5c-2.6,4.2-0.8,7.7,1.8,11.2c5.2,6.9,10.4,13.8,15.5,20.7c4.9,6.5,4.4,10.2-2,15
			c-11.4,8.6-22.8,17.2-34.3,25.7c-6,4.5-9.8,4-14.3-2.1c-5.4-7.1-10.8-14.3-16.1-21.4c-2.5-3.4-5.5-5.8-9.9-4.6
			c-4.4,1.2-5.8,4.8-6.4,9c-1.2,9-2.5,18-3.8,27c-0.9,6.2-3.9,8.9-10.3,8.1c-15.2-2-30.4-4.2-45.6-6.5c-5.6-0.9-7.8-3.8-7.1-9.6
			c0.9-8.4,2.3-16.8,3.4-25.2c0.2-1.7,1-3.6,0.5-5.1c-0.9-2.8-1.8-6-3.8-7.9c-2.6-2.4-6.2-1.6-9.1,0.5c-5.6,4.1-11.1,8.2-16.6,12.4
			c-2.5,1.9-5,3.8-7.5,5.6c-4.8,3.3-8.8,2.8-12.3-1.8c-9.3-12.2-18.5-24.5-27.7-36.9c-3.4-4.6-2.7-8.7,1.9-12.2
			c7.3-5.7,14.7-11.2,22.2-16.7c3.6-2.6,6-5.7,4.8-10.3c-1.1-4.2-4.6-5.6-8.6-6.1c-8.4-1.1-16.8-2.4-25.1-3.5
			c-9.3-1.3-11.4-4.3-10-13.6c2.1-13.9,4-27.9,6.1-41.9c1-6.5,4.5-8.9,10.8-8c9.3,1.4,18.6,2.7,27.9,4.1c3.9,0.6,7.2-0.3,9.4-3.8
			c2.1-3.5,1.3-6.9-1.1-10c-5.4-7.1-10.8-14.2-16-21.5c-1.8-2.6-3-5.6-5.2-9.7c-6.1,0.6-13.6,0.8-20.9,2.3
			c-55.6,11.4-92.1,44.4-107.9,98.9c-15.5,53.3,6.7,113.1,52.2,145c4.9,3.4,9.9,6.8,14.3,10.7c11.6,10.4,17.3,23.6,17.5,39.1
			c0.2,10.2,0,20.4,0.1,30.6c0.1,10.6,6.1,17.4,16.7,17.6c21,0.3,42,0.3,63.1,0c10.6-0.2,16.4-6.9,16.5-17.6
			c0.2-12.2-0.3-24.5,0.8-36.7c1.4-15.3,9.1-27.5,21.3-36.7c6.7-5.1,13.6-10,20.7-15.1c3.3,3.7,6.5,7.3,10.3,11.4
			c-4.6,3.6-9.1,6.9-13.4,10.5c-5.7,4.8-11.9,9.3-16.7,14.9c-5.4,6.2-7.2,14.2-7.2,22.4c-0.1,10,0,20.1,0,30.1
			c0,10.9-4.5,19.6-13,26.4c-1.5,1.2-2.8,3.7-2.8,5.7c-0.3,12.5-0.1,25.1-0.1,37.6c0,19.1-9.3,30.5-27.9,34.5
			c-0.4,0.1-0.8,0.4-1.2,0.6c-12.6,0-25.1,0-37.7,0c-0.3-0.2-0.5-0.4-0.8-0.5c-19.9-4.8-28.2-15.5-28.2-36.1
			c0-12.1,0.1-24.1-0.1-36.2c0-1.9-1.4-4.4-2.9-5.6c-5.3-4.5-9.8-9.5-11.3-16.3c-1.2-5.5-1.4-11.1-1.7-16.7
			c-0.3-4.7-0.1-9.5-0.1-14.2c-0.5-0.2-1-0.4-1.5-0.6c-3.4,3.7-6.7,7.4-10.2,10.9c-4.2,4.1-7.2,4.3-12.2,1.1
			c-5.2-3.5-10.3-7.1-15.5-10.6c-1.7-1.2-3.5-2.2-5.6-3.5c-1.9,8.8-3.5,16.8-5.3,24.7c-1.2,5.6-3.8,7.7-9.5,7.7
			c-9.6,0.1-19.1,0.1-28.7,0c-5.9,0-8.4-2.1-9.7-8c-0.3-1.5-0.6-3.1-1-4.6c-1.4-6.5-2.8-12.9-4.4-20c-7.3,5-13.9,9.5-20.5,14
			c-5.6,3.8-8.5,3.5-13.2-1.2c-5.7-5.6-11.3-11.3-17-16.9c-10.1-10.1-10.1-10.1-2-21.9c3.5-5.1,7-10.2,10.9-15.9
			c-8-1.7-15-3.3-22-4.5c-4.5-0.8-8.4-2.3-10.8-6.4c0-12.2,0-24.5,0-36.7c2.7-4.5,7.1-5.6,11.8-6.5c6.8-1.3,13.6-2.8,21-4.4
			c-5.1-7.5-9.8-14.2-14.3-20.9c-3.3-4.9-3.1-8.1,0.9-12.2c7.4-7.5,14.8-14.9,22.3-22.3c4-3.9,7.1-4.1,11.8-0.9
			c5.7,3.8,11.4,7.8,17.1,11.7c1.2,0.8,2.5,1.5,4.3,2.6c1.6-7.7,3.2-14.7,4.5-21.8c1.1-6.3,3.4-11.2,10.3-10.8
			c2.1-11.2,3.5-22.1,6.4-32.6c18.7-68.1,83-114.8,152.9-110.5c6.1,0.4,11.2-0.7,15.8-5c4-3.7,8.7-6.7,13.1-10
			c8.5-6.4,11.3-5.9,17.7,2.5c5.2,6.9,10.1,14,15.7,20.6c1.8,2.1,5.6,3.5,8.4,3.5c3.7,0,5.8-3.2,6.4-7c0.2-1.4,0.5-2.8,0.7-4.2
			c1.2-8.4,2.4-16.8,3.7-25.1c1-6.2,4.2-8.5,10.6-7.6c14.6,2,29.2,4,43.8,6.1c7.1,1,9.5,4.6,8.4,11.9c-1.3,8.8-2.4,17.7-3.8,26.5
			c-0.6,4.1-0.1,7.6,3.6,9.9c3.9,2.5,7.4,1,10.8-1.5c7.1-5.4,14.3-10.7,21.5-16.1c6-4.5,9.9-4,14.4,1.9
			c8.6,11.4,17.2,22.8,25.7,34.2c4.9,6.6,4.4,10.1-2.1,15c-7.4,5.6-14.8,11.1-22.2,16.7c-3,2.3-4.5,5.2-3.5,9c1,3.8,3.9,5.6,7.5,6.1
			c8.8,1.3,17.7,2.7,26.5,3.7c4.7,0.5,8.4,2.1,10.5,6.6C497,149.3,497,150.9,497,152.4z M274.1,68.6c5.4,7.3,10.7,13.9,15.2,21.1
			c8,12.7,2.1,29.8-12.1,34.2c-5.4,1.7-11.7,1-17.5,0.7c-5.7-0.3-11.3-1.5-17.3-2.3c-1.5,10.9-3,21.2-4.5,31.8
			c3.2,0.5,5.8,0.9,8.4,1.3c5.6,0.9,11.2,1.5,16.7,2.7c9.5,2.1,15.5,8.1,17.8,17.4c2.2,9.1-0.2,17.2-7.4,23.4
			c-6.3,5.4-13.1,10.2-20.1,15.6c6.4,8.6,12.8,17,19.3,25.7c6.1-4.5,11.4-9.2,17.4-12.8c4.6-2.7,9.9-5.4,15-5.8
			c15.5-1.1,26.6,12.8,24.1,29.2c-1.1,6.9-2,13.8-3,21.1c10.9,1.5,21.1,3,31.8,4.5c1-6.6,1.9-12.8,2.7-18.9
			c0.8-6.3,2.3-12.3,6.8-17.2c9.6-10.3,25.8-10.3,35,0.3c5.5,6.4,10.4,13.3,15.8,20.3c8.7-6.5,17.1-12.8,25.7-19.3
			c-4.8-6.4-9.3-12.2-13.6-18.2c-6.3-8.7-7.1-18-1.7-27.3c5-8.7,14.8-12.6,25.6-10.9c6.9,1.1,13.9,2,21.4,3
			c1.6-10.7,3.1-21,4.6-31.7c-2.3-0.4-4.3-0.8-6.2-1.1c-6.3-1-12.8-1.6-19-3c-9.3-2-15.3-8-17.6-17c-2.3-8.9-0.2-17.3,7-23.5
			c5-4.3,10.4-8.1,15.6-12.1c1.6-1.2,3.1-2.4,4.7-3.8c-3.5-4.6-6.6-8.8-9.7-12.9c-3.2-4.2-6.3-8.4-9.5-12.7
			c-7.4,5.3-14,10.7-21.1,15.2c-11.1,7-25.5,3.3-32.4-7.9c-4-6.5-3.7-13.4-2.7-20.5c0.9-6.1,1.7-12.3,2.6-18.7
			c-11-1.5-21.3-3-31.8-4.4c-1.1,7.5-2.3,14.3-3.1,21.1c-1.4,11.1-7,18.9-17.9,21.7c-11.1,2.9-19.9-1.5-26.5-10.6
			c-4.1-5.6-8.3-11-12.7-16.9C291.1,55.8,282.8,62.1,274.1,68.6z M174.4,367c5-5.2,9.6-10.2,14.4-14.9c2-2,2.2-3.5,1.1-6.1
			c-5.6-13.3-18.2-18.7-28.4-26.9c-15.1,21.4-33,29.4-53.8,24.5c-18.5-4.4-34.1-20.5-36-38.6c-3.2-30.8,12.4-48.5,41.1-56
			c-2-8.5-4-16.7-6-25.3c-0.5,1.2-0.9,2-1.1,2.8c-4.1,15.4-14.7,19.2-28,10.1c-4.5-3.1-9-6.2-14.1-9.7c-4.4,4.6-8.7,8.9-12.7,13.5
			c-0.6,0.7-0.5,2.9,0.2,3.9c2.8,4.5,6,8.8,9,13.2c7.2,11,2.5,22.7-10.2,25.7c-6.2,1.4-12.4,2.7-18.9,4.1c0,3.5,0,6.7,0,9.8
			c0,3.1,0,6.2,0,9.3c6.6,1.4,12.8,2.7,18.9,4.1c12.5,2.8,17.4,14.6,10.5,25.3c-2.9,4.5-5.9,8.9-9.1,13.1c-1.7,2.2-1.5,3.7,0.5,5.5
			c3.4,3.1,6.6,6.3,9.7,9.6c1.8,2,3.3,2.3,5.5,0.6c4.3-3.2,8.7-6.2,13.2-9.1c10.7-7,22.5-2.1,25.3,10.4c1.4,6.2,2.7,12.5,4,18.7
			c6.6,0,12.9,0,19.2,0c1.4-6.3,2.6-12.4,4-18.5c3-13,14.7-17.6,26-10.2C163.7,359.5,168.6,363,174.4,367z M121.1,328.9
			c10.2-0.3,19.8-5.9,26.1-17.1c1.6-2.9,1.5-4.8-0.9-7.3c-9.7-10.1-17.7-21.5-24-34c-3.1-6.2-3.7-6.4-10.6-4.8
			c-15.5,3.7-26.4,18.5-24.8,33.7C88.8,316.5,101.5,328.3,121.1,328.9z M224.9,456.9c0,1.9,0,3.3,0,4.7
			c-0.1,13.3,6.1,19.5,19.5,19.5c8.6,0,17.2,0,25.8,0c14.4,0,21.8-9.8,18.2-24.2C267.5,456.9,246.6,456.9,224.9,456.9z M225.1,440.8
			c21.6,0,42.7,0,63.7,0c0-5.5,0-10.6,0-15.7c-21.4,0-42.5,0-63.7,0C225.1,430.5,225.1,435.5,225.1,440.8z"/>
		<path class="st0" d="M120.4,15c5.3,21,10.6,42.1,16.1,63.8c-4.8,1.3-9.6,2.6-15,4c-2.8-10.7-5.5-21.2-8.2-31.7
			c-2.7-10.4-5.3-20.9-8-31.7c4.9-1.5,9.5-3,14.2-4.5C119.8,15,120.1,15,120.4,15z"/>
		<path class="st0" d="M197.4,106.7c2.8,4.4,5.4,8.6,7.4,11.7c-8.5,8.5-17.3,15.8-24.1,24.6c-37.7,48.6-19.5,120.3,36.8,145.4
			c13.4,6,25.8,12.9,34.5,25.1c8.2,11.5,12.8,24.3,12.6,39c-5,0-9.7,0-15,0c-0.6-3.6-1-7.4-1.9-11.2c-3.7-15.6-12.7-27.2-27.1-34.1
			c-12.6-6-25.4-11.7-35.9-21.1c-28.3-25.2-41.6-56.6-38.8-94.6C148.4,157.1,168.3,124.2,197.4,106.7z"/>
		<path class="st0" d="M396.1,367.1c3.5-4.2,6.7-8,10.1-12c16,13.3,31.7,26.4,47.7,39.7c-3.4,4.1-6.5,7.9-10,12
			C427.9,393.6,412.2,380.5,396.1,367.1z"/>
		<path class="st0" d="M464.7,313.6c0,5.1,0,9.7,0,14.8c-18.4,0-36.5,0-55.1,0c0-4.9,0-9.6,0-14.8
			C427.9,313.6,446.1,313.6,464.7,313.6z"/>
		<path class="st0" d="M361.6,377.9c0.6-0.3,0.7-0.4,0.9-0.4c14.3-1.7,14.3-1.7,14.3,12.7c0,12.4,0,24.8,0,37.2
			c0,1.7-0.1,3.4-0.2,5.3c-5.1,0-9.9,0-15,0C361.6,414.2,361.6,396.1,361.6,377.9z"/>
		<path class="st0" d="M249.5,392.7c0-8.1,0-15.5,0-23.3c4.9,0,9.7,0,15.2,0c0,7.1,0.1,14.1-0.1,21.2c0,0.7-1.6,1.9-2.4,1.9
			C258.2,392.8,254.1,392.7,249.5,392.7z"/>
		<path class="st0" d="M36.6,71.5c3.3-4.5,6.1-8.4,9.2-12.7c18.6,13.3,36.9,26.4,55.7,39.7c-3,4.3-5.9,8.3-9.1,12.8
			C73.8,98,55.4,84.9,36.6,71.5z"/>
		<path class="st0" d="M27.2,168.6c-1.3-5.1-2.5-9.7-3.9-15.2c21.1-5.3,42.1-10.5,63.6-16c1.3,5,2.5,9.9,3.8,15.2
			C69.5,158,48.7,163.2,27.2,168.6z"/>
		<path class="st0" d="M295.1,155.2c0-35.1,28.5-63.8,63.6-63.9c35.3-0.1,63.9,28.5,63.9,64c0,35.1-28.7,63.7-63.8,63.7
			C323.8,219,295.1,190.3,295.1,155.2z M406.9,155c-0.1-26.6-21.7-48-48.3-47.9c-26.2,0.1-47.9,21.8-47.9,48
			c-0.1,26.1,22.1,48.3,48.2,48.3C385.2,203.3,407,181.3,406.9,155z"/>
	</g>
</g>
</svg>
