<?xml version="1.0" encoding="utf-8"?>
<!-- Generator: Adobe Illustrator 23.0.3, SVG Export Plug-In . SVG Version: 6.00 Build 0)  -->
<svg version="1.1" id="Layer_1" xmlns="http://www.w3.org/2000/svg" xmlns:xlink="http://www.w3.org/1999/xlink" x="0px" y="0px"
	 viewBox="0 0 512 512" style="enable-background:new 0 0 512 512;" xml:space="preserve">

<g>
	<g>
		<path class="st0" d="M194,496.8c-19.7,0-39,0-58.6,0c-2.2-8.5-4.2-17-6.7-25.4c-0.5-1.8-2.4-3.6-4.1-4.5
			c-3.4-1.8-7.5-2.5-10.7-4.5c-5.2-3.2-9.5-3-14.5,0.7c-4.8,3.6-10.3,6.1-15.4,9.4c-2.4,1.5-3.9,1.2-5.8-0.8
			c-12-12.1-24-24.2-36.2-36.2c-2.2-2.1-2.3-3.7-0.7-6.2c4-6.3,7.8-12.7,11.4-19.3c0.9-1.6,0.8-4.2,0.3-6.1
			c-1.1-3.5-3.5-6.8-4.2-10.3c-1.4-6.7-5.5-9.5-11.9-10.5c-5.6-0.9-11-2.9-16.5-4c-2.7-0.6-3.7-1.6-3.7-4.5
			c0.1-17.2,0.1-34.4,0-51.6c0-2.9,1.1-3.8,3.8-4.4c7.4-1.7,14.8-3.6,22.1-5.8c1.7-0.5,3.4-2.2,4.2-3.8c2.4-5.1,4.6-10.4,6.5-15.7
			c0.6-1.5,0.5-3.8-0.3-5.2c-3.8-6.8-7.8-13.5-11.9-20.1c-1.4-2.2-1.1-3.6,0.7-5.4C54,250.5,66.2,238.3,78.2,226
			c2-2.1,3.5-2.1,5.8-0.7c6.5,4,13,8,19.7,11.6c1.5,0.8,4,0.9,5.6,0.3c5.2-1.8,10.3-3.9,15.2-6.3c1.7-0.8,3.5-2.8,4.1-4.6
			c2.5-8.4,4.5-16.9,6.7-25.3c19.7,0,39,0,58.6,0c2.2,8.5,4.2,17,6.7,25.4c0.5,1.8,2.4,3.6,4.1,4.5c3.6,1.8,7.8,2.5,11.2,4.7
			c5.2,3.4,9.3,2.3,14-0.9c5-3.5,10.5-6.5,15.9-9.4c1.2-0.6,3.9-0.4,4.8,0.6c12.4,12.1,24.6,24.5,37,36.7c1.9,1.9,1.9,3.3,0.6,5.5
			c-4,6.5-8,13-11.6,19.7c-0.9,1.6-0.9,4.2-0.3,6.1c1.3,4,3.9,7.6,4.8,11.7c1.3,5.7,4.6,7.8,9.9,8.7c6.1,1,11.9,3.1,17.9,4.4
			c2.7,0.6,3.7,1.6,3.7,4.5c-0.1,17.2-0.1,34.4,0,51.6c0,3-1.2,3.8-3.8,4.4c-7.4,1.7-14.8,3.6-22.1,5.7c-1.7,0.5-3.4,2.2-4.2,3.8
			c-2.4,5.1-4.6,10.4-6.5,15.7c-0.5,1.5-0.5,3.8,0.3,5.2c3.8,6.8,7.8,13.5,11.9,20.1c1.4,2.2,1.2,3.6-0.7,5.4
			c-12.2,12.1-24.4,24.3-36.5,36.5c-2,2-3.5,2.1-5.8,0.6c-6.5-4-13-8-19.7-11.6c-1.5-0.8-4-0.8-5.6-0.2c-5.2,1.8-10.3,3.9-15.3,6.3
			c-1.7,0.8-3.5,2.8-4.1,4.5C198.2,479.8,196.2,488.3,194,496.8z M147.3,481.4c11.7,0,23.1,0,34.9,0c2-7.6,3.8-15.2,6-22.6
			c0.5-1.6,2.3-3.4,3.9-4.1c9.3-4.1,18.7-8,28.2-11.6c1.6-0.6,4.1-0.7,5.6,0.1c6.8,3.7,13.4,7.8,19.7,11.5
			c8.4-8.4,16.5-16.5,24.9-24.9c-3.7-6.3-7.8-12.9-11.5-19.7c-0.8-1.4-0.9-3.7-0.3-5.2c3.8-9.6,7.7-19.2,11.9-28.7
			c0.7-1.6,2.5-3.3,4.1-3.8c7.4-2.2,15-4,22.6-6c0-11.8,0-23.3,0-35c-7.4-1.9-14.5-4-21.8-5.5c-3.2-0.7-4.3-2.4-5.3-5.2
			c-3.4-8.9-6.9-17.8-11-26.4c-1.4-2.9-1.4-4.8,0.2-7.4c4-6.3,7.6-12.8,11.1-18.6c-8.5-8.5-16.5-16.7-24.8-25.1
			c-6.3,3.7-12.8,7.8-19.5,11.4c-1.6,0.9-4.2,0.8-6,0.2c-9.3-3.6-18.5-7.7-27.9-11.3c-2.6-1-3.9-2.1-4.5-4.9
			c-1.7-7.4-3.7-14.7-5.7-22.3c-11,0-21.7-0.1-32.4,0.1c-1.1,0-2.8,1.8-3.2,3.1c-1.9,6.4-3.2,12.9-5.2,19.2
			c-0.5,1.7-2.4,3.6-4.1,4.4c-9.3,4.1-18.7,8-28.2,11.7c-1.5,0.6-3.8,0.7-5.2-0.1c-6-3.2-11.8-6.8-17.6-10.4
			c-2.2-1.3-3.6-1.3-5.4,0.6c-6.5,6.8-13.2,13.4-20,20c-1.9,1.8-2,3.2-0.6,5.4c3.6,5.8,7.1,11.6,10.4,17.6c0.7,1.4,0.7,3.7,0.1,5.2
			c-3.7,9.5-7.6,18.9-11.7,28.2c-0.8,1.7-2.6,3.6-4.4,4.2c-6.3,2-12.9,3.3-19.2,5.2c-1.3,0.4-3.1,2.1-3.2,3.2
			C32,344.6,32,355.3,32,366.3c7.4,1.9,14.6,3.9,21.8,5.5c3,0.7,4.4,2.1,5.5,5.1c3.4,9.1,7.1,18.1,11.1,26.9c1.3,2.7,1.3,4.5-0.2,7
			c-4,6.4-7.7,13-11.3,19c8.5,8.5,16.5,16.5,24.8,24.9c6.3-3.8,12.9-7.8,19.7-11.5c1.5-0.8,4-0.8,5.6-0.2
			c9.5,3.7,18.9,7.6,28.2,11.7c1.7,0.8,3.5,2.7,4,4.5C143.6,466.4,145.3,473.8,147.3,481.4z"/>
		<path class="st0" d="M324.1,332c11.3,1.3,21.6,2.5,31.9,3.7c3.9,0.5,7.7,1.2,11.6,1.3c2.1,0.1,4.5-0.4,6.4-1.4
			c29.2-14.5,58.2-14.1,85.8,3.3c27.5,17.4,40.9,43.5,39.9,76c-1.4,43.6-37.1,79.3-80.9,81.7c-43.2,2.4-82.2-29-89-71.8
			c-2.9-18.2-0.2-35.6,8.1-52c1.5-2.9,1.6-5.2,0.3-8.2C333.5,354.4,329.1,343.7,324.1,332z M360,455.8c1.8-19.1,15.1-26.6,29-32.6
			c-1.9-5.1-4.4-9.4-5-13.9c-0.9-7.5-1.2-15.2-0.7-22.8c1.1-17,14.9-29.8,30.9-29.7c16.4,0.1,30.1,12.7,30.8,29.2
			c0.5,12.5,2.3,25.4-6.6,36.8c15.1,6.2,28.1,14,30,32.8c1.8-2.3,2.9-3.5,3.8-4.8c18.3-26.6,16-62.5-5.6-86.5
			c-22-24.4-57.2-30.7-85.6-14.9c-5.4,3-10.4,3.5-16.1,2.6c-5.1-0.8-10.3-1.1-16.3-1.8c2.6,6.1,4.6,11.2,6.9,16.2
			c1.2,2.6,1,4.6-0.6,7.1c-9.4,15-12.9,31.3-10,48.9C346.9,434.6,351.5,445.3,360,455.8z M450.6,450.2c0.3-0.5,0.6-0.9,0.8-1.4
			c-3-2.3-5.7-5-8.9-6.9c-4.7-2.8-9.7-5.2-14.8-7.4c-3.9-1.7-6.5-3.8-5.6-8.6c0.7-3.6-1.1-7.4,2.4-10.9c2.6-2.6,4.7-6.5,5.2-10
			c0.8-6.1,0.4-12.3,0.2-18.5c-0.3-6.3-4.7-11.6-10.9-13.6c-5.9-1.9-12.1-0.1-16.2,4.8c-5.4,6.4-6.9,28.8-1,34.6
			c5,5,4.7,10.2,4.5,15.9c-0.1,1.6-1.4,3.9-2.8,4.7c-5.9,3.3-12.2,6-18.1,9.4c-3,1.7-5.5,4.4-8.2,6.7c0.3,0.4,0.6,0.8,0.9,1.2
			C402.1,450.2,426.3,450.2,450.6,450.2z M370.6,466c28,23.3,68.8,17.8,86.3,0C428.4,466,400,466,370.6,466z"/>
		<path class="st0" d="M305.3,267.5c0-12,0-23.5,0-35.7c-4.8,0-9.3,0-13.8,0c-15.6-0.1-25.3-9.7-25.3-25.2c0-35.1,0-70.2,0-105.2
			c0-15.6,9.7-25.2,25.2-25.3c61.1,0,122.1,0,183.2,0c15.6,0,25.2,9.7,25.3,25.2c0,35.1,0,70.2,0,105.2c0,15.5-9.7,25.2-25.3,25.2
			c-30.7,0-61.4-0.1-92.1,0.1c-3.5,0-7.4,1-10.6,2.6c-20.7,10.1-41.2,20.5-61.8,30.8C308.7,266,307.2,266.6,305.3,267.5z
			 M320.6,242.7c2.2-1,3.8-1.6,5.3-2.4c14.5-7.2,29-14.6,43.6-21.7c2.6-1.3,5.8-2,8.8-2c32-0.1,64-0.1,96-0.1
			c7.6,0,10.3-2.6,10.3-10.2c0-34.8,0-69.5,0-104.3c0-8-2.5-10.5-10.5-10.5c-60.6,0-121.2,0-181.8,0c-8.3,0-10.7,2.4-10.7,10.7
			c0,34.4,0,68.9,0,103.3c0,8.6,2.4,11,11,11c9.2,0,18.4,0,28.1,0C320.6,225.4,320.6,233.8,320.6,242.7z"/>
		<path class="st0" d="M164.6,153.9c0,9.9,0,19.1,0,28.9c-1.9-1-3.3-1.7-4.7-2.5c-13.5-8.1-26.9-16.3-40.5-24.2
			c-2.2-1.3-5.1-2.1-7.7-2.1c-23.1-0.2-46.1-0.1-69.2-0.1c-16.3,0-25.8-9.5-25.8-25.7c0-29.6,0-59.1,0-88.7
			c0-16.2,9.5-25.7,25.7-25.8c60.7,0,121.5,0,182.2,0c16.2,0,25.7,9.5,25.7,25.7c0,29.6,0,59.1,0,88.7c0,16.2-9.5,25.7-25.8,25.7
			c-18,0-36.1,0-54.1,0C168.8,153.9,167,153.9,164.6,153.9z M149.2,138.5c2.3,0,4.1,0,5.8,0c23.2,0,46.4,0,69.6,0
			c7.7,0,10.4-2.6,10.4-10.1c0-29.7,0-59.4,0-89.1c0-7.6-2.6-10.2-10.3-10.2c-60.9,0-121.7,0-182.6,0c-7.3,0-10.1,2.7-10.1,9.9
			c0,29.9,0,59.7,0,89.6c0,7.2,2.7,9.9,10.1,9.9c18.8,0,37.7,0.7,56.5-0.2c14.7-0.7,27.8,1.7,39.5,11c3.2,2.5,7,4.2,11.1,6.6
			C149.2,149.7,149.2,144.5,149.2,138.5z"/>
		<path class="st0" d="M258.1,348.9c0,51.5-42.2,93.6-93.7,93.4c-51.3-0.1-93.2-42.2-93.2-93.5c0-51.5,42.2-93.5,93.7-93.4
			C216.3,255.6,258.2,297.6,258.1,348.9z M165,270.8c-43.2-0.1-78.3,34.7-78.4,77.7c-0.1,43.2,34.6,78.4,77.5,78.5
			c43.4,0.1,78.6-34.7,78.6-77.9C242.8,306,208,270.9,165,270.8z"/>
		<path class="st0" d="M406.1,185.1c5.6,0,10.4,0,15.8,0c0-20.5,0-41,0-61.8c5.4,0,10.1,0,15.5,0c0,20.5,0,41,0,61.8
			c5.5,0,10.5,0,15.8,0c0-25.8,0-51.4,0-77.3c5.2,0,10,0,15.1,0c0,30.7,0,61.4,0,92.6c-51.4,0-103,0-154.9,0c0-4.6,0-9.4,0-14.7
			c4.7,0,9.6,0,15.1,0c0-10.7,0-20.8,0-31.2c5.4,0,10.1,0,15.3,0c0,10.2,0,20.2,0,30.6c5.3,0,10.3,0,15.8,0c0-15.2,0-30.6,0-46.1
			c5.4,0,10.1,0,15.3,0c0,15.3,0,30.5,0,46.1c5.3,0,10.3,0,15.8,0c0-25.6,0-51.3,0-77.3c5.4,0,10.1,0,15.3,0
			C406.1,133.3,406.1,158.9,406.1,185.1z"/>
		<path class="st0" d="M71.2,107.1c-12.7,0-23.3-10.6-23.3-23.2c0-12.7,10.5-23.3,23.2-23.3c12.7,0,23.3,10.5,23.3,23.2
			C94.4,96.5,83.8,107.1,71.2,107.1z M71.1,91.7c4.2,0,7.8-3.4,7.9-7.6c0.1-4.4-3.4-8.1-7.9-8.1c-4.3,0-7.8,3.4-7.9,7.6
			C63.1,88,66.7,91.7,71.1,91.7z"/>
		<path class="st0" d="M133.5,60.6c12.7,0,23.2,10.6,23.2,23.3c0,12.7-10.6,23.2-23.3,23.2c-12.7,0-23.2-10.6-23.2-23.3
			C110.3,71.1,120.9,60.5,133.5,60.6z M133.7,91.7c4.2-0.1,7.7-3.6,7.7-7.8c0-4.4-3.6-8-8.1-7.9c-4.4,0.1-7.9,3.9-7.7,8.3
			C125.9,88.5,129.5,91.8,133.7,91.7z"/>
		<path class="st0" d="M219.1,83.8c0,12.7-10.6,23.3-23.2,23.3c-12.7,0-23.3-10.6-23.3-23.3c0-12.7,10.6-23.3,23.2-23.3
			C208.6,60.6,219.1,71.1,219.1,83.8z M203.8,83.8c0-4.3-3.5-7.7-7.7-7.8c-4.5-0.1-8.1,3.5-8.1,7.9c0,4.4,3.7,8,8.2,7.8
			C200.4,91.5,203.8,88,203.8,83.8z"/>
		<path class="st0" d="M164.9,302.3c25.7,0.1,46.7,21.4,46.5,47.1c-0.2,25.5-21.4,46.3-46.8,46.2c-25.7-0.1-46.7-21.4-46.5-47.1
			C118.3,323,139.4,302.2,164.9,302.3z M164.6,380.2c17.3,0,31.3-13.9,31.4-31.1c0.1-17.3-13.8-31.4-31-31.5
			c-17.5-0.1-31.6,13.9-31.6,31.4C133.4,366.2,147.4,380.2,164.6,380.2z"/>
	</g>
</g>
</svg>
